<svg width="67" height="50" viewBox="0 0 67 50" fill="none" xmlns="http://www.w3.org/2000/svg">
<circle cx="25" cy="25" r="25" fill="url(#paint0_linear_36_114)"/>
<rect x="20" y="16.5" width="47" height="17" rx="8.5" fill="#484848"/>
<path d="M31.248 20.666H32.3418V25.957L27.5156 20.2969H25.2051V20.666H26.2988V28.1309H25.2051V28.5H28.0352C27.9805 28.2721 27.8574 28.1491 27.666 28.1309H26.873V22.4297L32.1367 28.5684L32.916 28.4316V20.666H34.0098V20.2969H31.248V20.666ZM38.4531 28.5C38.3984 28.2721 38.2754 28.1491 38.084 28.1309H37.3594V20.666H38.4531V20.2969H34.3516V20.666H35.4453V28.1309H34.3516V28.5H38.4531ZM42.7871 20.666C43.735 20.6842 44.2135 21.3223 44.2227 22.5801C44.2044 23.8379 43.7077 24.4714 42.7324 24.4805H42.0078V20.666H42.7871ZM43.375 28.5C43.3203 28.2721 43.1973 28.1491 43.0059 28.1309H42.0078V24.8906H43.1289C44.7057 24.8906 45.6947 24.3939 46.0957 23.4004C46.2142 23.1178 46.2734 22.8034 46.2734 22.457C46.2734 21.6003 45.8906 20.985 45.125 20.6113C44.6875 20.4017 44.168 20.2969 43.5664 20.2969H39V20.666H40.0938V28.1309H39V28.5H43.375ZM50.7852 28.5C50.7305 28.2721 50.6074 28.1491 50.416 28.1309H49.6914V24.4805H53.1641V28.1309H52.0703V28.5H56.1719C56.1172 28.2721 55.9941 28.1491 55.8027 28.1309H55.0781V20.666H56.1719V20.2969H52.0703V20.666H53.1641V24.0703H49.6914V20.666H50.7852V20.2969H46.6836V20.666H47.7773V28.1309H46.6836V28.5H50.7852ZM60.8203 28.5C60.7656 28.2721 60.6426 28.1491 60.4512 28.1309H59.7266V20.666H60.8203V20.2969H56.7188V20.666H57.8125V28.1309H56.7188V28.5H60.8203Z" fill="#E7A704"/>
<defs>
<linearGradient id="paint0_linear_36_114" x1="25" y1="0" x2="25" y2="50" gradientUnits="userSpaceOnUse">
<stop stop-color="#E7A704"/>
<stop offset="0.447917" stop-color="#EAD49D" stop-opacity="0.9"/>
<stop offset="1" stop-color="#E4A502"/>
</linearGradient>
</defs>
</svg>
