<svg width="15" height="15" viewBox="0 0 15 15" fill="none" xmlns="http://www.w3.org/2000/svg">
<path d="M0.507621 3.3019C0.531246 3.09771 0.621809 2.9059 0.777621 2.7259L2.93762 0.565901C3.10581 0.421901 3.23181 0.446089 3.31562 0.637901L5.06162 3.9139C5.15781 4.10571 5.12743 4.2919 4.97162 4.4719L4.17962 5.2639C4.03562 5.4079 3.95181 5.59409 3.92762 5.8219C3.92762 6.1819 4.11381 6.64371 4.48562 7.2079C4.85743 7.77209 5.22362 8.2519 5.58362 8.64846L6.14162 9.2239C6.30981 9.39209 6.52525 9.59909 6.79018 9.8449C7.054 10.0907 7.48881 10.4147 8.09462 10.8169C8.70043 11.2191 9.17799 11.4199 9.52562 11.4199C9.75343 11.4199 9.94581 11.3417 10.1016 11.1859L11.0382 10.2499C11.2064 10.0817 11.3858 10.0575 11.5776 10.1779L14.7282 12.0319C14.812 12.0803 14.8604 12.1427 14.8722 12.2209C14.884 12.2991 14.8604 12.3683 14.8002 12.4279L12.6402 14.5879C12.4602 14.7437 12.2678 14.8343 12.0647 14.8573C11.4764 14.9417 10.8132 14.8607 10.0752 14.6143C9.33718 14.368 8.65374 14.0412 8.02375 13.6333C7.39375 13.2255 6.80875 12.8115 6.26875 12.3919C5.72875 11.9717 5.29675 11.6117 4.97275 11.3119L4.50475 10.8613C4.38493 10.7415 4.22575 10.5767 4.02775 10.3663C3.82975 10.156 3.48381 9.74309 2.99162 9.1249C2.49943 8.50671 2.07362 7.90371 1.71362 7.3159C1.35362 6.72809 1.042 6.05871 0.777621 5.3089C0.513809 4.55909 0.423809 3.88971 0.507621 3.3019Z" fill="#E7A704"/>
</svg>
